<?xml version="1.0" encoding="utf-8"?>
<!-- Generator: Adobe Illustrator 27.0.0, SVG Export Plug-In . SVG Version: 6.00 Build 0)  -->
<svg version="1.1" id="Layer_1" xmlns="http://www.w3.org/2000/svg" xmlns:xlink="http://www.w3.org/1999/xlink" x="0px" y="0px"
	 viewBox="0 0 384 512" style="enable-background:new 0 0 384 512;" xml:space="preserve">
<style type="text/css">
	.st0{fill-rule:evenodd;clip-rule:evenodd;fill:#030708;}
</style>
<path class="st0" d="M118.8,256L17,154.2c-9.4-9.4-9.4-24.6,0-34L56.2,81c9.4-9.4,24.6-9.4,34,0L192,182.8L293.8,81
	c9.4-9.4,24.6-9.4,34,0l39.2,39.2c9.4,9.4,9.4,24.6,0,34L265.2,256L367,357.8c9.4,9.4,9.4,24.6,0,34L327.8,431
	c-9.4,9.4-24.6,9.4-34,0L192,329.2L90.2,431c-9.4,9.4-24.6,9.4-34,0L17,391.8c-9.4-9.4-9.4-24.6,0-34L118.8,256z"/>
</svg>
